<svg width="774" height="216" viewBox="0 0 774 216" fill="none" xmlns="http://www.w3.org/2000/svg">
<mask id="mask0_3_92" style="mask-type:alpha" maskUnits="userSpaceOnUse" x="0" y="0" width="799" height="455">
<path d="M798.167 205.02C798.167 205.02 629.028 230.331 585.653 333.898C544.317 432.483 372.913 454 372.913 454" stroke="#F7C193" stroke-width="2" stroke-miterlimit="10"/>
<path d="M798.167 184.635C798.167 184.635 614.249 211.815 567.023 324.102C522.12 431.01 335.71 454 335.71 454" stroke="#F7C193" stroke-width="2" stroke-miterlimit="10"/>
<path d="M798.167 164.25C798.167 164.25 599.413 193.298 548.451 314.306C499.923 429.481 298.508 454 298.508 454" stroke="#F7C193" stroke-width="2" stroke-miterlimit="10"/>
<path d="M798.167 143.808C798.167 143.808 584.577 174.782 529.821 304.51C477.726 427.952 261.362 454 261.362 454" stroke="#F7C193" stroke-width="2" stroke-miterlimit="10"/>
<path d="M798.167 123.423C798.167 123.423 569.798 156.266 511.248 294.714C455.529 426.48 224.159 454 224.159 454" stroke="#F7C193" stroke-width="2" stroke-miterlimit="10"/>
<path d="M798.167 103.038C798.167 103.038 554.962 137.749 492.618 284.974C433.332 424.951 186.956 454 186.956 454" stroke="#F7C193" stroke-width="2" stroke-miterlimit="10"/>
<path d="M798.167 82.5966C798.167 82.5966 540.127 119.233 473.989 275.122C411.135 423.422 149.754 454 149.754 454" stroke="#F7C193" stroke-width="2" stroke-miterlimit="10"/>
<path d="M798.167 62.2116C798.167 62.2116 525.347 100.717 455.416 265.382C388.938 421.95 112.551 454 112.551 454" stroke="#F7C193" stroke-width="2" stroke-miterlimit="10"/>
<path d="M798.167 41.8266C798.167 41.8266 510.512 82.2002 436.786 255.586C366.741 420.421 75.4053 454 75.4053 454" stroke="#F7C193" stroke-width="2" stroke-miterlimit="10"/>
<path d="M798.167 21.385C798.167 21.385 495.676 63.6272 418.213 245.79C344.487 418.892 38.2026 454 38.2026 454" stroke="#F7C193" stroke-width="2" stroke-miterlimit="10"/>
<path d="M798.167 1C798.167 1 480.897 45.1675 399.583 235.994C322.29 417.42 1 454 1 454" stroke="#F7C193" stroke-width="2" stroke-miterlimit="10"/>
</mask>
<g mask="url(#mask0_3_92)">
<path d="M798.28 -1.26498H-17.12V454H798.28V-1.26498Z" fill="url(#paint0_linear_3_92)"/>
</g>
<defs>
<linearGradient id="paint0_linear_3_92" x1="489.5" y1="-48.5" x2="672.661" y2="190.611" gradientUnits="userSpaceOnUse">
<stop stop-color="#2578C5"/>
<stop offset="1" stop-color="#0D69BE"/>
</linearGradient>
</defs>
</svg>
